<svg width="29" height="24" viewBox="0 0 29 24" fill="none" xmlns="http://www.w3.org/2000/svg">
<path d="M26.5276 0.211879C26.5276 0.211879 29.2103 -0.826978 28.9868 1.69596C28.9123 2.73483 28.2416 6.37083 27.7199 10.3037L25.9315 21.9537C25.9315 21.9537 25.7825 23.6604 24.4411 23.9573C23.0997 24.254 21.0877 22.9184 20.7151 22.6216C20.417 22.399 15.1261 19.0598 13.2631 17.4273C12.7414 16.982 12.1453 16.0916 13.3376 15.0527L21.1622 7.63234C22.0564 6.74187 22.9507 4.66416 19.2247 7.1871L8.79191 14.2365C8.79191 14.2365 7.59959 14.9785 5.36404 14.3107L0.52022 12.8266C0.52022 12.8266 -1.26826 11.7136 1.78706 10.6004C9.23906 7.11284 18.405 3.55104 26.5276 0.211879Z" fill="black"/>
</svg>
