<svg width="29" height="24" viewBox="0 0 29 24" fill="none" xmlns="http://www.w3.org/2000/svg">
<path fill-rule="evenodd" clip-rule="evenodd" d="M9.1205 24C20.0637 24 26.0493 14.7652 26.0493 6.75784C26.0493 6.49496 26.0492 6.23406 26.0318 5.97413C27.1962 5.11756 28.2011 4.05404 29 2.83713C27.9154 3.32744 26.7626 3.64899 25.5838 3.79076C26.825 3.03314 27.7545 1.84289 28.1996 0.438419C27.0309 1.14434 25.7535 1.64255 24.4209 1.90987C22.1676 -0.529863 18.3991 -0.648069 16.0022 1.64693C14.458 3.12671 13.8011 5.33305 14.2811 7.43753C9.4975 7.19238 5.0402 4.89151 2.0184 1.1064C0.43935 3.87545 1.247 7.41653 3.86135 9.19463C2.9145 9.16657 1.98795 8.90693 1.16 8.4373V8.51421C1.16145 11.3985 3.1581 13.882 5.9334 14.4535C5.0576 14.6972 4.1383 14.7325 3.248 14.5568C4.02665 17.026 6.2611 18.7173 8.80585 18.766C6.699 20.4526 4.09625 21.3684 1.41665 21.3654C0.94395 21.364 0.47125 21.3359 0 21.2783C2.72165 23.0564 5.887 24 9.1205 23.9956" fill="white"/>
</svg>
